<svg width="20" height="17" viewBox="0 0 20 17" fill="none" xmlns="http://www.w3.org/2000/svg">
<path d="M9.71427 16.9596L9.39046 16.6762C2.0238 10.6858 0.0404663 8.581 0.0404663 5.14052C0.0404663 2.30719 2.34761 0.0405273 5.14046 0.0405273C7.48808 0.0405273 8.8238 1.37624 9.71427 2.38814C10.6047 1.37624 11.9405 0.0405273 14.2881 0.0405273C17.1214 0.0405273 19.3881 2.34767 19.3881 5.14052C19.3881 8.581 17.4048 10.6858 10.0381 16.6762L9.71427 16.9596ZM5.14046 1.0929C2.91427 1.0929 1.09284 2.91433 1.09284 5.14052C1.09284 8.09529 2.95475 10.0381 9.71427 15.5834C16.4738 10.0381 18.3357 8.09529 18.3357 5.14052C18.3357 2.91433 16.5143 1.0929 14.2881 1.0929C12.2643 1.0929 11.1714 2.30719 10.3214 3.27862L9.71427 3.96672L9.10713 3.27862C8.25713 2.30719 7.16427 1.0929 5.14046 1.0929Z" fill="#1B1C1E"/>
</svg>
